<mxfile host="app.diagrams.net" modified="2023-05-07T07:01:28.564Z" agent="Mozilla/5.0 (Macintosh; Intel Mac OS X 10_15_7) AppleWebKit/605.1.15 (KHTML, like Gecko) Version/16.4 Safari/605.1.15" etag="EACmdnNbZb18kubGDgwB" version="21.2.6" type="github">
  <diagram name="Page-1" id="0783ab3e-0a74-02c8-0abd-f7b4e66b4bec">
    <mxGraphModel dx="1854" dy="567" grid="1" gridSize="10" guides="1" tooltips="1" connect="1" arrows="1" fold="1" page="1" pageScale="1" pageWidth="850" pageHeight="1100" background="none" math="0" shadow="0">
      <root>
        <mxCell id="0" />
        <mxCell id="1" parent="0" />
        <mxCell id="Yh1rhXzA50dwjJJRKIVV-23" value="" style="rounded=0;whiteSpace=wrap;html=1;rotation=90;fillColor=none;" parent="1" vertex="1">
          <mxGeometry x="-128.59" y="147.28" width="1092.83" height="839.37" as="geometry" />
        </mxCell>
        <mxCell id="Yh1rhXzA50dwjJJRKIVV-24" value="" style="endArrow=none;html=1;rounded=0;exitX=0.041;exitY=1.001;exitDx=0;exitDy=0;exitPerimeter=0;entryX=0.041;entryY=-0.001;entryDx=0;entryDy=0;entryPerimeter=0;" parent="1" source="Yh1rhXzA50dwjJJRKIVV-23" target="Yh1rhXzA50dwjJJRKIVV-23" edge="1">
          <mxGeometry width="50" height="50" relative="1" as="geometry">
            <mxPoint x="450" y="280" as="sourcePoint" />
            <mxPoint x="500" y="230" as="targetPoint" />
          </mxGeometry>
        </mxCell>
        <mxCell id="Yh1rhXzA50dwjJJRKIVV-25" value="Aktivitätsdiagramm: &amp;nbsp;add a new reservation" style="text;html=1;strokeColor=none;fillColor=none;align=center;verticalAlign=middle;whiteSpace=wrap;rounded=0;" parent="1" vertex="1">
          <mxGeometry x="285" y="43" width="280" height="30" as="geometry" />
        </mxCell>
        <mxCell id="Yh1rhXzA50dwjJJRKIVV-26" value="" style="endArrow=none;html=1;rounded=0;exitX=1.001;exitY=0.663;exitDx=0;exitDy=0;exitPerimeter=0;" parent="1" source="Yh1rhXzA50dwjJJRKIVV-23" edge="1">
          <mxGeometry width="50" height="50" relative="1" as="geometry">
            <mxPoint x="450" y="320" as="sourcePoint" />
            <mxPoint x="280" y="80" as="targetPoint" />
          </mxGeometry>
        </mxCell>
        <mxCell id="Yh1rhXzA50dwjJJRKIVV-27" value="" style="endArrow=none;html=1;rounded=0;exitX=1.001;exitY=0.283;exitDx=0;exitDy=0;exitPerimeter=0;" parent="1" source="Yh1rhXzA50dwjJJRKIVV-23" edge="1">
          <mxGeometry width="50" height="50" relative="1" as="geometry">
            <mxPoint x="550" y="123" as="sourcePoint" />
            <mxPoint x="600" y="80" as="targetPoint" />
          </mxGeometry>
        </mxCell>
        <mxCell id="Yh1rhXzA50dwjJJRKIVV-28" value="" style="endArrow=none;html=1;rounded=0;exitX=0.041;exitY=1.001;exitDx=0;exitDy=0;exitPerimeter=0;entryX=0.041;entryY=-0.001;entryDx=0;entryDy=0;entryPerimeter=0;" parent="1" edge="1">
          <mxGeometry width="50" height="50" relative="1" as="geometry">
            <mxPoint x="-2.6799999999999997" y="120" as="sourcePoint" />
            <mxPoint x="838.32" y="120" as="targetPoint" />
          </mxGeometry>
        </mxCell>
        <mxCell id="Yh1rhXzA50dwjJJRKIVV-29" value="User/ Admin" style="text;html=1;strokeColor=none;fillColor=none;align=center;verticalAlign=middle;whiteSpace=wrap;rounded=0;" parent="1" vertex="1">
          <mxGeometry x="90" y="80.32" width="110" height="30" as="geometry" />
        </mxCell>
        <mxCell id="Yh1rhXzA50dwjJJRKIVV-30" value="Hotelsystem" style="text;html=1;strokeColor=none;fillColor=none;align=center;verticalAlign=middle;whiteSpace=wrap;rounded=0;" parent="1" vertex="1">
          <mxGeometry x="362.82" y="80.32" width="110" height="30" as="geometry" />
        </mxCell>
        <mxCell id="Yh1rhXzA50dwjJJRKIVV-31" value="Customer" style="text;html=1;strokeColor=none;fillColor=none;align=center;verticalAlign=middle;whiteSpace=wrap;rounded=0;" parent="1" vertex="1">
          <mxGeometry x="640" y="80.32" width="110" height="30" as="geometry" />
        </mxCell>
        <mxCell id="Yh1rhXzA50dwjJJRKIVV-44" style="edgeStyle=orthogonalEdgeStyle;rounded=0;orthogonalLoop=1;jettySize=auto;html=1;fillColor=#f8cecc;strokeColor=#b85450;" parent="1" source="Yh1rhXzA50dwjJJRKIVV-35" target="Yh1rhXzA50dwjJJRKIVV-42" edge="1">
          <mxGeometry relative="1" as="geometry" />
        </mxCell>
        <mxCell id="Yh1rhXzA50dwjJJRKIVV-35" value="Öffnen des &quot;Übersichtskalenders&quot;" style="rounded=1;whiteSpace=wrap;html=1;arcSize=40;fontColor=#000000;fillColor=#ffffc0;strokeColor=#ff0000;" parent="1" vertex="1">
          <mxGeometry x="80" y="220" width="120" height="40" as="geometry" />
        </mxCell>
        <mxCell id="Yh1rhXzA50dwjJJRKIVV-40" value="" style="ellipse;html=1;shape=startState;fillColor=#000000;strokeColor=#ff0000;" parent="1" vertex="1">
          <mxGeometry x="125" y="131" width="30" height="30" as="geometry" />
        </mxCell>
        <mxCell id="Yh1rhXzA50dwjJJRKIVV-41" value="" style="edgeStyle=orthogonalEdgeStyle;html=1;verticalAlign=bottom;endArrow=open;endSize=8;strokeColor=#ff0000;rounded=0;" parent="1" source="Yh1rhXzA50dwjJJRKIVV-40" edge="1">
          <mxGeometry relative="1" as="geometry">
            <mxPoint x="140" y="221" as="targetPoint" />
          </mxGeometry>
        </mxCell>
        <mxCell id="Yh1rhXzA50dwjJJRKIVV-42" value="Anzeigen des Kalenders" style="rounded=1;whiteSpace=wrap;html=1;arcSize=40;fontColor=#000000;fillColor=#ffffc0;strokeColor=#ff0000;" parent="1" vertex="1">
          <mxGeometry x="357.82" y="220" width="120" height="40" as="geometry" />
        </mxCell>
        <mxCell id="Yh1rhXzA50dwjJJRKIVV-43" value="" style="edgeStyle=orthogonalEdgeStyle;html=1;verticalAlign=bottom;endArrow=open;endSize=8;strokeColor=#ff0000;rounded=0;entryX=1;entryY=0.5;entryDx=0;entryDy=0;" parent="1" source="Yh1rhXzA50dwjJJRKIVV-42" target="Yh1rhXzA50dwjJJRKIVV-45" edge="1">
          <mxGeometry relative="1" as="geometry">
            <mxPoint x="417.82" y="320" as="targetPoint" />
            <Array as="points">
              <mxPoint x="430" y="300" />
            </Array>
          </mxGeometry>
        </mxCell>
        <mxCell id="Yh1rhXzA50dwjJJRKIVV-45" value="Zeitraum für die neue Buchung auswählen" style="rounded=1;whiteSpace=wrap;html=1;arcSize=40;fontColor=#000000;fillColor=#ffffc0;strokeColor=#ff0000;" parent="1" vertex="1">
          <mxGeometry x="50" y="280" width="150" height="40" as="geometry" />
        </mxCell>
        <mxCell id="Yh1rhXzA50dwjJJRKIVV-46" value="" style="edgeStyle=orthogonalEdgeStyle;html=1;verticalAlign=bottom;endArrow=open;endSize=8;strokeColor=#ff0000;rounded=0;entryX=0;entryY=0.5;entryDx=0;entryDy=0;" parent="1" source="Yh1rhXzA50dwjJJRKIVV-45" target="Yh1rhXzA50dwjJJRKIVV-47" edge="1">
          <mxGeometry relative="1" as="geometry">
            <mxPoint x="140" y="380" as="targetPoint" />
            <Array as="points">
              <mxPoint x="125" y="350" />
            </Array>
          </mxGeometry>
        </mxCell>
        <mxCell id="Yh1rhXzA50dwjJJRKIVV-47" value="Anzeigen der freien Zimmer zu dem ausgewählten Zeitraum" style="rounded=1;whiteSpace=wrap;html=1;arcSize=40;fontColor=#000000;fillColor=#ffffc0;strokeColor=#ff0000;" parent="1" vertex="1">
          <mxGeometry x="349" y="330" width="171" height="40" as="geometry" />
        </mxCell>
        <mxCell id="Yh1rhXzA50dwjJJRKIVV-48" value="" style="edgeStyle=orthogonalEdgeStyle;html=1;verticalAlign=bottom;endArrow=open;endSize=8;strokeColor=#ff0000;rounded=0;entryX=1;entryY=0.5;entryDx=0;entryDy=0;" parent="1" source="Yh1rhXzA50dwjJJRKIVV-47" target="Yh1rhXzA50dwjJJRKIVV-49" edge="1">
          <mxGeometry relative="1" as="geometry">
            <mxPoint x="423" y="450" as="targetPoint" />
            <Array as="points">
              <mxPoint x="440" y="400" />
            </Array>
          </mxGeometry>
        </mxCell>
        <mxCell id="Yh1rhXzA50dwjJJRKIVV-49" value="Drücken auf Plussymbol, um Buchung hinzuzufügen" style="rounded=1;whiteSpace=wrap;html=1;arcSize=40;fontColor=#000000;fillColor=#ffffc0;strokeColor=#ff0000;" parent="1" vertex="1">
          <mxGeometry x="40" y="380" width="170" height="40" as="geometry" />
        </mxCell>
        <mxCell id="Yh1rhXzA50dwjJJRKIVV-50" value="" style="edgeStyle=orthogonalEdgeStyle;html=1;verticalAlign=bottom;endArrow=open;endSize=8;strokeColor=#ff0000;rounded=0;entryX=0;entryY=0.5;entryDx=0;entryDy=0;" parent="1" source="Yh1rhXzA50dwjJJRKIVV-49" target="Yh1rhXzA50dwjJJRKIVV-51" edge="1">
          <mxGeometry relative="1" as="geometry">
            <mxPoint x="120" y="490" as="targetPoint" />
            <Array as="points">
              <mxPoint x="120" y="460" />
            </Array>
          </mxGeometry>
        </mxCell>
        <mxCell id="Yh1rhXzA50dwjJJRKIVV-51" value="Öffnen der Seite, in welcher man Daten der Buchung eingibt" style="rounded=1;whiteSpace=wrap;html=1;arcSize=40;fontColor=#000000;fillColor=#ffffc0;strokeColor=#ff0000;" parent="1" vertex="1">
          <mxGeometry x="357.82" y="440" width="172.18" height="40" as="geometry" />
        </mxCell>
        <mxCell id="Yh1rhXzA50dwjJJRKIVV-52" value="" style="edgeStyle=orthogonalEdgeStyle;html=1;verticalAlign=bottom;endArrow=open;endSize=8;strokeColor=#ff0000;rounded=0;entryX=1;entryY=0.5;entryDx=0;entryDy=0;" parent="1" source="Yh1rhXzA50dwjJJRKIVV-51" target="Yh1rhXzA50dwjJJRKIVV-53" edge="1">
          <mxGeometry relative="1" as="geometry">
            <mxPoint x="425" y="540" as="targetPoint" />
            <Array as="points">
              <mxPoint x="440" y="510" />
            </Array>
          </mxGeometry>
        </mxCell>
        <mxCell id="Yh1rhXzA50dwjJJRKIVV-53" value="Ausfüllen aller Felder &amp;amp; Auswählen der Zahlungsmethode" style="rounded=1;whiteSpace=wrap;html=1;arcSize=40;fontColor=#000000;fillColor=#ffffc0;strokeColor=#ff0000;" parent="1" vertex="1">
          <mxGeometry x="40" y="490" width="170" height="40" as="geometry" />
        </mxCell>
        <mxCell id="Yh1rhXzA50dwjJJRKIVV-54" value="" style="edgeStyle=orthogonalEdgeStyle;html=1;verticalAlign=bottom;endArrow=open;endSize=8;strokeColor=#ff0000;rounded=0;entryX=0;entryY=0.5;entryDx=0;entryDy=0;" parent="1" source="Yh1rhXzA50dwjJJRKIVV-53" target="Yh1rhXzA50dwjJJRKIVV-57" edge="1">
          <mxGeometry relative="1" as="geometry">
            <mxPoint x="125" y="590" as="targetPoint" />
            <Array as="points">
              <mxPoint x="120" y="560" />
            </Array>
          </mxGeometry>
        </mxCell>
        <mxCell id="Yh1rhXzA50dwjJJRKIVV-57" value="Anzeigen aller ausgefüllten und -gewählten Felder" style="rounded=1;whiteSpace=wrap;html=1;arcSize=40;fontColor=#000000;fillColor=#ffffc0;strokeColor=#ff0000;" parent="1" vertex="1">
          <mxGeometry x="339" y="540" width="191" height="40" as="geometry" />
        </mxCell>
        <mxCell id="Yh1rhXzA50dwjJJRKIVV-58" value="" style="edgeStyle=orthogonalEdgeStyle;html=1;verticalAlign=bottom;endArrow=open;endSize=8;strokeColor=#ff0000;rounded=0;entryX=1;entryY=0.5;entryDx=0;entryDy=0;" parent="1" source="Yh1rhXzA50dwjJJRKIVV-57" target="Yh1rhXzA50dwjJJRKIVV-59" edge="1">
          <mxGeometry relative="1" as="geometry">
            <mxPoint x="409" y="700" as="targetPoint" />
            <Array as="points">
              <mxPoint x="440" y="620" />
            </Array>
          </mxGeometry>
        </mxCell>
        <mxCell id="Yh1rhXzA50dwjJJRKIVV-59" value="Drücken des Button &quot;Buchung hinzufügen&quot;" style="rounded=1;whiteSpace=wrap;html=1;arcSize=40;fontColor=#000000;fillColor=#ffffc0;strokeColor=#ff0000;" parent="1" vertex="1">
          <mxGeometry x="65" y="600" width="120" height="40" as="geometry" />
        </mxCell>
        <mxCell id="Yh1rhXzA50dwjJJRKIVV-60" value="" style="edgeStyle=orthogonalEdgeStyle;html=1;verticalAlign=bottom;endArrow=open;endSize=8;strokeColor=#ff0000;rounded=0;entryX=0;entryY=0.5;entryDx=0;entryDy=0;" parent="1" source="Yh1rhXzA50dwjJJRKIVV-59" target="Yh1rhXzA50dwjJJRKIVV-61" edge="1">
          <mxGeometry relative="1" as="geometry">
            <mxPoint x="125" y="700" as="targetPoint" />
            <Array as="points">
              <mxPoint x="120" y="680" />
            </Array>
          </mxGeometry>
        </mxCell>
        <mxCell id="Yh1rhXzA50dwjJJRKIVV-61" value="Überprüfen aller Buchungsdetails" style="rounded=1;whiteSpace=wrap;html=1;arcSize=40;fontColor=#000000;fillColor=#ffffc0;strokeColor=#ff0000;" parent="1" vertex="1">
          <mxGeometry x="358" y="660" width="120" height="40" as="geometry" />
        </mxCell>
        <mxCell id="Yh1rhXzA50dwjJJRKIVV-62" value="" style="edgeStyle=orthogonalEdgeStyle;html=1;verticalAlign=bottom;endArrow=open;endSize=8;strokeColor=#ff0000;rounded=0;" parent="1" source="Yh1rhXzA50dwjJJRKIVV-61" edge="1">
          <mxGeometry relative="1" as="geometry">
            <mxPoint x="418" y="760" as="targetPoint" />
          </mxGeometry>
        </mxCell>
        <mxCell id="Yh1rhXzA50dwjJJRKIVV-72" style="edgeStyle=orthogonalEdgeStyle;rounded=0;orthogonalLoop=1;jettySize=auto;html=1;entryX=0.5;entryY=0;entryDx=0;entryDy=0;fillColor=#f8cecc;strokeColor=#b85450;" parent="1" source="Yh1rhXzA50dwjJJRKIVV-63" target="Yh1rhXzA50dwjJJRKIVV-67" edge="1">
          <mxGeometry relative="1" as="geometry" />
        </mxCell>
        <mxCell id="Yh1rhXzA50dwjJJRKIVV-63" value="" style="rhombus;whiteSpace=wrap;html=1;fontColor=#000000;fillColor=none;strokeColor=#ff0000;" parent="1" vertex="1">
          <mxGeometry x="397.82" y="760" width="40" height="50" as="geometry" />
        </mxCell>
        <mxCell id="Yh1rhXzA50dwjJJRKIVV-64" value="" style="edgeStyle=orthogonalEdgeStyle;html=1;align=left;verticalAlign=bottom;endArrow=open;endSize=8;strokeColor=#ff0000;rounded=0;" parent="1" source="Yh1rhXzA50dwjJJRKIVV-63" target="Yh1rhXzA50dwjJJRKIVV-70" edge="1">
          <mxGeometry x="-1" relative="1" as="geometry">
            <mxPoint x="560" y="780" as="targetPoint" />
            <Array as="points">
              <mxPoint x="505" y="780" />
            </Array>
            <mxPoint as="offset" />
          </mxGeometry>
        </mxCell>
        <mxCell id="Yh1rhXzA50dwjJJRKIVV-86" style="edgeStyle=orthogonalEdgeStyle;rounded=0;orthogonalLoop=1;jettySize=auto;html=1;exitX=0.5;exitY=1;exitDx=0;exitDy=0;entryX=0.5;entryY=0;entryDx=0;entryDy=0;fillColor=#f8cecc;strokeColor=#b85450;" parent="1" source="Yh1rhXzA50dwjJJRKIVV-67" target="Yh1rhXzA50dwjJJRKIVV-75" edge="1">
          <mxGeometry relative="1" as="geometry" />
        </mxCell>
        <mxCell id="Yh1rhXzA50dwjJJRKIVV-67" value="Anzeigen einer Fehlermeldung &amp;amp; Aufforderung falsche Daten zu korrigieren" style="rounded=1;whiteSpace=wrap;html=1;arcSize=40;fontColor=#000000;fillColor=#ffffc0;strokeColor=#ff0000;" parent="1" vertex="1">
          <mxGeometry x="280" y="840" width="170" height="40" as="geometry" />
        </mxCell>
        <mxCell id="Yh1rhXzA50dwjJJRKIVV-79" value="" style="edgeStyle=orthogonalEdgeStyle;rounded=0;orthogonalLoop=1;jettySize=auto;html=1;fillColor=#f8cecc;strokeColor=#b85450;entryX=0.5;entryY=0;entryDx=0;entryDy=0;" parent="1" source="Yh1rhXzA50dwjJJRKIVV-70" target="FOZmNPfybHb1-5jQe_G3-1" edge="1">
          <mxGeometry relative="1" as="geometry">
            <mxPoint x="470" y="925" as="targetPoint" />
          </mxGeometry>
        </mxCell>
        <mxCell id="Yh1rhXzA50dwjJJRKIVV-70" value="neue Buchung erfolgreich hinzugefügt" style="rounded=1;whiteSpace=wrap;html=1;arcSize=40;fontColor=#000000;fillColor=#ffffc0;strokeColor=#ff0000;" parent="1" vertex="1">
          <mxGeometry x="460" y="840" width="130" height="40" as="geometry" />
        </mxCell>
        <mxCell id="Yh1rhXzA50dwjJJRKIVV-75" value="Korrigieren der falschen Daten" style="rounded=1;whiteSpace=wrap;html=1;arcSize=40;fontColor=#000000;fillColor=#ffffc0;strokeColor=#ff0000;" parent="1" vertex="1">
          <mxGeometry x="65" y="930" width="120" height="40" as="geometry" />
        </mxCell>
        <mxCell id="Yh1rhXzA50dwjJJRKIVV-76" value="" style="edgeStyle=orthogonalEdgeStyle;html=1;verticalAlign=bottom;endArrow=open;endSize=8;strokeColor=#ff0000;rounded=0;entryX=0.003;entryY=0.361;entryDx=0;entryDy=0;entryPerimeter=0;" parent="1" source="Yh1rhXzA50dwjJJRKIVV-75" target="Yh1rhXzA50dwjJJRKIVV-59" edge="1">
          <mxGeometry relative="1" as="geometry">
            <mxPoint x="125" y="1000" as="targetPoint" />
            <Array as="points">
              <mxPoint x="20" y="950" />
              <mxPoint x="20" y="614" />
            </Array>
          </mxGeometry>
        </mxCell>
        <mxCell id="Yh1rhXzA50dwjJJRKIVV-85" style="edgeStyle=orthogonalEdgeStyle;rounded=0;orthogonalLoop=1;jettySize=auto;html=1;entryX=0.5;entryY=0;entryDx=0;entryDy=0;fillColor=#f8cecc;strokeColor=#b85450;" parent="1" source="Yh1rhXzA50dwjJJRKIVV-80" target="Yh1rhXzA50dwjJJRKIVV-81" edge="1">
          <mxGeometry relative="1" as="geometry" />
        </mxCell>
        <mxCell id="Yh1rhXzA50dwjJJRKIVV-80" value="Erhalten einer Bestätigungsmail" style="rounded=1;whiteSpace=wrap;html=1;arcSize=40;fontColor=#000000;fillColor=#ffffc0;strokeColor=#ff0000;" parent="1" vertex="1">
          <mxGeometry x="620" y="1020" width="120" height="40" as="geometry" />
        </mxCell>
        <mxCell id="Yh1rhXzA50dwjJJRKIVV-81" value="" style="ellipse;html=1;shape=endState;fillColor=#000000;strokeColor=#ff0000;" parent="1" vertex="1">
          <mxGeometry x="665" y="1080" width="30" height="30" as="geometry" />
        </mxCell>
        <mxCell id="Yh1rhXzA50dwjJJRKIVV-82" value="Alle Daten korrekt und ausgefüllt?" style="shape=note;whiteSpace=wrap;html=1;backgroundOutline=1;darkOpacity=0.05;size=17;" parent="1" vertex="1">
          <mxGeometry x="500" y="670" width="80" height="70" as="geometry" />
        </mxCell>
        <mxCell id="Yh1rhXzA50dwjJJRKIVV-84" value="" style="endArrow=none;dashed=1;html=1;rounded=0;entryX=0;entryY=0.5;entryDx=0;entryDy=0;entryPerimeter=0;exitX=0.629;exitY=0.127;exitDx=0;exitDy=0;exitPerimeter=0;fillColor=#f8cecc;strokeColor=#b85450;" parent="1" source="Yh1rhXzA50dwjJJRKIVV-63" target="Yh1rhXzA50dwjJJRKIVV-82" edge="1">
          <mxGeometry width="50" height="50" relative="1" as="geometry">
            <mxPoint x="420" y="900" as="sourcePoint" />
            <mxPoint x="470" y="850" as="targetPoint" />
          </mxGeometry>
        </mxCell>
        <mxCell id="Yh1rhXzA50dwjJJRKIVV-90" value="ja" style="text;html=1;strokeColor=none;fillColor=none;align=center;verticalAlign=middle;whiteSpace=wrap;rounded=0;" parent="1" vertex="1">
          <mxGeometry x="412.82" y="755" width="60" height="30" as="geometry" />
        </mxCell>
        <mxCell id="Yh1rhXzA50dwjJJRKIVV-91" value="nein" style="text;html=1;strokeColor=none;fillColor=none;align=center;verticalAlign=middle;whiteSpace=wrap;rounded=0;" parent="1" vertex="1">
          <mxGeometry x="372.82" y="800" width="60" height="30" as="geometry" />
        </mxCell>
        <mxCell id="FOZmNPfybHb1-5jQe_G3-1" value="" style="rhombus;whiteSpace=wrap;html=1;fontColor=#000000;fillColor=#ffffc0;strokeColor=#ff0000;" vertex="1" parent="1">
          <mxGeometry x="425" y="930" width="80" height="40" as="geometry" />
        </mxCell>
        <mxCell id="FOZmNPfybHb1-5jQe_G3-2" value="ja" style="edgeStyle=orthogonalEdgeStyle;html=1;align=left;verticalAlign=bottom;endArrow=open;endSize=8;strokeColor=#ff0000;rounded=0;entryX=0.5;entryY=0;entryDx=0;entryDy=0;" edge="1" source="FOZmNPfybHb1-5jQe_G3-1" parent="1" target="FOZmNPfybHb1-5jQe_G3-6">
          <mxGeometry x="0.3333" y="5" relative="1" as="geometry">
            <mxPoint x="740" y="830" as="targetPoint" />
            <mxPoint as="offset" />
          </mxGeometry>
        </mxCell>
        <mxCell id="FOZmNPfybHb1-5jQe_G3-3" value="nein" style="edgeStyle=orthogonalEdgeStyle;html=1;align=left;verticalAlign=top;endArrow=open;endSize=8;strokeColor=#ff0000;rounded=0;entryX=0.5;entryY=0;entryDx=0;entryDy=0;" edge="1" source="FOZmNPfybHb1-5jQe_G3-1" parent="1" target="FOZmNPfybHb1-5jQe_G3-8">
          <mxGeometry x="-0.6785" y="-20" relative="1" as="geometry">
            <mxPoint x="600" y="910" as="targetPoint" />
            <mxPoint as="offset" />
          </mxGeometry>
        </mxCell>
        <mxCell id="FOZmNPfybHb1-5jQe_G3-4" value="Emailadresse gegeben" style="shape=note;whiteSpace=wrap;html=1;backgroundOutline=1;darkOpacity=0.05;size=17;" vertex="1" parent="1">
          <mxGeometry x="640" y="820" width="80" height="70" as="geometry" />
        </mxCell>
        <mxCell id="FOZmNPfybHb1-5jQe_G3-5" value="" style="endArrow=none;dashed=1;html=1;rounded=0;entryX=0;entryY=0.5;entryDx=0;entryDy=0;entryPerimeter=0;exitX=0.828;exitY=0.365;exitDx=0;exitDy=0;fillColor=#f8cecc;strokeColor=#b85450;exitPerimeter=0;" edge="1" parent="1" target="FOZmNPfybHb1-5jQe_G3-4" source="FOZmNPfybHb1-5jQe_G3-1">
          <mxGeometry width="50" height="50" relative="1" as="geometry">
            <mxPoint x="505" y="946" as="sourcePoint" />
            <mxPoint x="552" y="1030" as="targetPoint" />
          </mxGeometry>
        </mxCell>
        <mxCell id="FOZmNPfybHb1-5jQe_G3-6" value="Bestätigungsmail an Kunde versenden" style="rounded=1;whiteSpace=wrap;html=1;arcSize=40;fontColor=#000000;fillColor=#ffffc0;strokeColor=#ff0000;" vertex="1" parent="1">
          <mxGeometry x="405" y="1000" width="120" height="40" as="geometry" />
        </mxCell>
        <mxCell id="FOZmNPfybHb1-5jQe_G3-7" value="" style="edgeStyle=orthogonalEdgeStyle;html=1;verticalAlign=bottom;endArrow=open;endSize=8;strokeColor=#ff0000;rounded=0;entryX=0;entryY=0.5;entryDx=0;entryDy=0;" edge="1" source="FOZmNPfybHb1-5jQe_G3-6" parent="1" target="Yh1rhXzA50dwjJJRKIVV-80">
          <mxGeometry relative="1" as="geometry">
            <mxPoint x="473" y="1090" as="targetPoint" />
          </mxGeometry>
        </mxCell>
        <mxCell id="FOZmNPfybHb1-5jQe_G3-8" value="" style="ellipse;html=1;shape=endState;fillColor=#000000;strokeColor=#ff0000;" vertex="1" parent="1">
          <mxGeometry x="309" y="1005" width="30" height="30" as="geometry" />
        </mxCell>
      </root>
    </mxGraphModel>
  </diagram>
</mxfile>
